{"title":"A Good Day to Die Hard 2013 Extended Cut 1080p x264 - alrmothe","uid":8511583,"size":7077753989,"categoryP":"video","categoryS":"hd___movies","magnet":"?xt=urn:btih:fb63c825ffea054fccef95f12c651802699cf570&amp;dn=A+Good+Day+to+Die+Hard+2013+Extended+Cut+1080p+x264+-+alrmothe&amp;tr=udp%3A%2F%2Ftracker.openbittorrent.com%3A80&amp;tr=udp%3A%2F%2Fopen.demonii.com%3A1337&amp;tr=udp%3A%2F%2Ftracker.coppersurfer.tk%3A6969&amp;tr=udp%3A%2F%2Fexodus.desync.com%3A6969","seeders":1,"leechers":0,"uploader":".alrmothe","files":20,"time":1369594418,"description":"***************************************************************\nA Good Day to Die Hard 2013 Extended Cut 1080p x264 - alrmothe\n***************************************************************\n\nTitle : A Good Day to Die Hard\nYEAR: 2013\nGENRE : Action | Crime | Thriller       \nimdb URL http://www.imdb.com/title/tt1606378/\nOverall bit rate: 9242 kbps\nFormat version: Version 4 / Version 2\nFile size:  6.53 GiB\nDuration:  1h 41mn\nSub:Arabic,English SDH,English,Spanish\nsample:Yes\n***************************************************************\n\nVideo\nFormat: Matroska\nFormat : AVC \nFormat/Info : Advanced Video Codec \nFormat profile : &lt;a class=&quot;__cf_email__&quot; href=&quot;/cdn-cgi/l/email-protection&quot; data-cfemail=&quot;0c44656b644c4038223d&quot;&gt;[email&amp;#160;protected]&lt;/a&gt;&lt;script cf-hash='f9e31' type=&quot;text/javascript&quot;&gt;\n/* &lt;![CDATA[ */!function(){try{var t=&quot;currentScript&quot;in document?document.currentScript:function(){for(var t=document.getElementsByTagName(&quot;script&quot;),e=t.length;e--;)if(t[e].getAttribute(&quot;cf-hash&quot;))return t[e]}();if(t&amp;&amp;t.previousSibling){var e,r,n,i,c=t.previousSibling,a=c.getAttribute(&quot;data-cfemail&quot;);if(a){for(e=&quot;&quot;,r=parseInt(a.substr(0,2),16),n=2;a.length-n;n+=2)i=parseInt(a.substr(n,2),16)^r,e+=String.fromCharCode(i);e=document.createTextNode(e),c.parentNode.replaceChild(e,c)}}}catch(u){}}();/* ]]&gt; */&lt;/script&gt; \nFormat settings, CABAC : Yes \nFormat settings, ReFrames : 4 frames  \nCodec ID : V_MPEG4/ISO/AVC  \nBit rate : 8589 kbps \nWidth : 1920 pixels \nHeight : 1040 pixels \nDisplay aspect ratio : 1:85:1 \nFrame rate : 23.976 fps \nColor space : YUV \nChroma subsampling : 4:2:0 \nBit depth : 8 bits \nScan type : Progressive \nBits/(Pixel*Frame) : 0.179 \nStream size: 5.95 GiB \n\n\nAudio \nFormat: Ac3\nBit rate :640 Kbps\nChannel(s) : 6 channels\nChannel positions:Front: L C R, Side: L R, LFE\nSampling rate: 48.0 KHz\nBit depth: 16 bits\nCompression mode: Lossy\nStream size: 463 GiB\nLanguage : English\n\n***************************************************************\n\n\nScreenshots &lt;a href=&quot;\nhttp://img708.imageshack.us/img708/6711/vlcsnap2013052618h56m02.png&quot; rel=&quot;nofollow&quot; target=&quot;_NEW&quot;&gt;\nhttp://img708.imageshack.us/img708/6711/vlcsnap2013052618h56m02.png&lt;/a&gt; &lt;a href=&quot;\nhttp://img705.imageshack.us/img705/1012/vlcsnap2013052618h53m42.png&quot; rel=&quot;nofollow&quot; target=&quot;_NEW&quot;&gt;\nhttp://img705.imageshack.us/img705/1012/vlcsnap2013052618h53m42.png&lt;/a&gt; &lt;a href=&quot;\nhttp://img600.imageshack.us/img600/3223/vlcsnap2013052618h53m59.png&quot; rel=&quot;nofollow&quot; target=&quot;_NEW&quot;&gt;\nhttp://img600.imageshack.us/img600/3223/vlcsnap2013052618h53m59.png&lt;/a&gt; &lt;a href=&quot;\nhttp://img853.imageshack.us/img853/8641/vlcsnap2013052618h54m36.png&quot; rel=&quot;nofollow&quot; target=&quot;_NEW&quot;&gt;\nhttp://img853.imageshack.us/img853/8641/vlcsnap2013052618h54m36.png&lt;/a&gt;\n\n\n\nUse KMPlayer for the best quality\n","torrent":{"xt":"urn:btih:fb63c825ffea054fccef95f12c651802699cf570","amp;dn":"A+Good+Day+to+Die+Hard+2013+Extended+Cut+1080p+x264+-+alrmothe","amp;tr":["udp%3A%2F%2Ftracker.openbittorrent.com%3A80","udp%3A%2F%2Fopen.demonii.com%3A1337","udp%3A%2F%2Ftracker.coppersurfer.tk%3A6969","udp%3A%2F%2Fexodus.desync.com%3A6969"],"infoHash":"fb63c825ffea054fccef95f12c651802699cf570","infoHashBuffer":{"type":"Buffer","data":[251,99,200,37,255,234,5,79,204,239,149,241,44,101,24,2,105,156,245,112]},"announce":[],"urlList":[]}}